<mxfile host="app.diagrams.net" modified="2023-10-20T01:20:14.801Z" agent="Mozilla/5.0 (Windows NT 10.0; Win64; x64) AppleWebKit/537.36 (KHTML, like Gecko) Chrome/118.0.0.0 Safari/537.36" version="22.0.5" etag="ILZkvgLj_b1uxaPBV8dR" type="github">
  <diagram name="PÃ¡gina-1" id="73p9qm_YNR8T0H6zlhUg">
    <mxGraphModel>
      <root>
        <mxCell id="0" />
        <mxCell id="1" parent="0" />
      </root>
    </mxGraphModel>
  </diagram>
</mxfile>
